HIERARCHY
ROOT root
{
	OFFSET	0	13.1	24.9
	CHANNELS 6  Xposition Yposition Zposition Xrotation Yrotation Zrotation
	JOINT spine_1
	{
		OFFSET	0	9.99999	0
		CHANNELS 3  Xrotation Yrotation Zrotation
		JOINT spine_2
		{
			OFFSET	0	112	-10
			CHANNELS 3  Xrotation Yrotation Zrotation
			JOINT spine_3
			{
				OFFSET	0	206.5	19.3
				CHANNELS 3  Xrotation Yrotation Zrotation
				JOINT spine_4
				{
					OFFSET	0	110.4	14.6
					CHANNELS 3  Xrotation Yrotation Zrotation
					JOINT neck_1
					{
						OFFSET	0	71.8	-50.3
						CHANNELS 3  Xrotation Yrotation Zrotation
						JOINT neck_2
						{
							OFFSET	0	86.2	-25.8
							CHANNELS 3  Xrotation Yrotation Zrotation
							JOINT head_ee
							{
								OFFSET	0	179.8	-8.7
								CHANNELS 3  Xrotation Yrotation Zrotation
								End Site
								{
									OFFSET	1	0	0
								}
							}
						}
					}
					JOINT left_clavicle
					{
						OFFSET	-43.2	22.4	-70.8
						CHANNELS 3  Xrotation Yrotation Zrotation
						JOINT left_shoulder
						{
							OFFSET	-93.9	-5.79999	48.7
							CHANNELS 3  Xrotation Yrotation Zrotation
							JOINT left_elbow
							{
								OFFSET	-291.4	-30.8	15.2
								CHANNELS 3  Xrotation Yrotation Zrotation
								JOINT left_lowarm_twist
								{
									OFFSET	-110.7	-3.89999	13.6
									CHANNELS 3  Xrotation Yrotation Zrotation
									JOINT left_hand
									{
										OFFSET	-110.7	-3.89999	13.6
										CHANNELS 3  Xrotation Yrotation Zrotation
										JOINT left_ee
										{
											OFFSET	-80.8	-5.10001	12.1
											CHANNELS 3  Xrotation Yrotation Zrotation
											End Site
											{
												OFFSET	1	0	0
											}
										}
									}
								}
							}
						}
					}
					JOINT right_clavicle
					{
						OFFSET	43.2	22.4	-70.8
						CHANNELS 3  Xrotation Yrotation Zrotation
						JOINT right_shoulder
						{
							OFFSET	93.9	-5.79999	48.7
							CHANNELS 3  Xrotation Yrotation Zrotation
							JOINT right_elbow
							{
								OFFSET	291.4	-30.8	15.2
								CHANNELS 3  Xrotation Yrotation Zrotation
								JOINT right_lowarm_twist
								{
									OFFSET	110.7	-3.89999	13.6
									CHANNELS 3  Xrotation Yrotation Zrotation
									JOINT right_hand
									{
										OFFSET	110.7	-3.89999	13.6
										CHANNELS 3  Xrotation Yrotation Zrotation
										JOINT right_ee
										{
											OFFSET	80.8	-5.10001	12.1
											CHANNELS 3  Xrotation Yrotation Zrotation
											End Site
											{
												OFFSET	1	0	0
											}
										}
									}
								}
							}
						}
					}
				}
			}
		}
	}
	JOINT left_hip
	{
		OFFSET	-82.8	-127.5	0.300001
		CHANNELS 3  Xrotation Yrotation Zrotation
		JOINT left_knee
		{
			OFFSET	-28.2	-396.7	2.2
			CHANNELS 3  Xrotation Yrotation Zrotation
			JOINT left_ankle
			{
				OFFSET	-11.7	-411.3	35.4
				CHANNELS 3  Xrotation Yrotation Zrotation
				JOINT left_toes
				{
					OFFSET	0	-60	-88.6
					CHANNELS 3  Xrotation Yrotation Zrotation
					JOINT left_foot_ee
					{
						OFFSET	-22.5	-16.5	-42.2
						CHANNELS 3  Xrotation Yrotation Zrotation
						End Site
						{
							OFFSET	1	0	0
						}
					}
				}
			}
		}
	}
	JOINT right_hip
	{
		OFFSET	82.8	-127.5	0.300001
		CHANNELS 3  Xrotation Yrotation Zrotation
		JOINT right_knee
		{
			OFFSET	28.2	-396.7	2.2
			CHANNELS 3  Xrotation Yrotation Zrotation
			JOINT right_ankle
			{
				OFFSET	11.7	-411.3	35.4
				CHANNELS 3  Xrotation Yrotation Zrotation
				JOINT right_toes
				{
					OFFSET	0	-60	-88.6
					CHANNELS 3  Xrotation Yrotation Zrotation
					JOINT right_foot_ee
					{
						OFFSET	22.5	-16.5	-42.2
						CHANNELS 3  Xrotation Yrotation Zrotation
						End Site
						{
							OFFSET	1	0	0
						}
					}
				}
			}
		}
	}
}
MOTION
Frames: 12
Frame Time: 0.02
3177.02 653.055 -1669.29 5.19591022337 70.9986062712 -13.0125160935 -1.937 1.42078 6.1562 -1.91651 1.02695 6.23372 -1.78097 -0.50203 6.29751 -1.83592 0.496818 6.29792 -13.3952 -0.80223 -8.70565 -13.191 3.88946 -8.54932 -0.0 0.0 -0.0 -4.38041 21.5318 -3.76347 -11.3143 -23.0778 65.9466 0.439291 -12.2771 0.0472457 -76.0482 -7.31873 5.31547 5.10036 4.54895 38.4978 -0.0 0.0 -0.0 13.2396 27.7363 -26.0135 30.843 7.10829 -63.6826 3.01006 56.1409 -1.60549 69.7006 2.70937 7.92609 -1.76528 6.03822 14.6259 0.0 0.0 0.0 28.8002 11.4663 2.62859 -5.10189 0.176183 0.762909 -19.7733 18.6429 3.01764 -33.5931 0.0 0.0 -0.0 0.0 -0.0 -19.6451 7.56196 8.16173 -13.8027 -0.31798 -2.08923 41.8674 -4.34112 5.01567 -7.08462 0.0 0.0 0.0 0.0 0.0 
3125.65322228 659.452 -1665.3972051 2.02668962828 69.547806604 -9.2717272951 -1.51735 1.14617 6.02852 -1.49746 0.760963 6.08892 -1.39703 -0.685768 6.09782 -1.44876 0.284006 6.12956 -10.5895 -0.567618 -7.30248 -10.4416 3.80585 -7.24291 -0.0 0.0 -0.0 -3.7083 21.1918 -2.86872 -10.7936 -24.08 66.0473 0.441255 -12.3302 0.047664 -77.4304 -7.49503 5.30696 5.11296 7.44754 39.6923 -0.0 0.0 -0.0 12.8565 27.2164 -25.1983 25.8777 5.8428 -64.299 2.87738 54.9369 -1.49609 70.827 2.82663 8.01057 -2.22965 -0.184326 14.9789 0.0 0.0 0.0 28.8511 11.9777 2.99208 -9.16045 0.267403 1.37892 -16.5376 18.2909 2.5168 -31.48 0.0 0.0 -0.0 0.0 -0.0 -21.6792 7.75534 8.35976 -11.8035 -0.303257 -1.78285 40.7753 -6.73258 4.92683 -4.26787 0.0 0.0 0.0 0.0 0.0 
3095.2882923 661.481 -1663.93480284 1.04503165875 69.8277713552 -8.59668986133 -1.31736 0.852969 5.64481 -1.29978 0.492642 5.68746 -1.23543 -0.837577 5.64711 -1.27989 0.0632809 5.70833 -9.41889 -0.560843 -6.27161 -9.30769 3.25003 -6.28209 -0.0 0.0 -0.0 -3.26984 21.0277 -2.26801 -10.5454 -24.3781 65.4768 0.431691 -12.0709 0.0456428 -77.2062 -7.46646 5.30863 5.00736 4.70828 37.7683 -0.0 0.0 -0.0 12.841 26.4773 -25.2535 22.8231 6.28206 -64.0075 2.75368 53.7455 -1.39557 69.4232 2.68073 7.90492 -2.15639 -1.01873 14.0761 0.0 0.0 0.0 26.0371 10.7943 4.8532 -7.35812 0.232284 1.10459 -11.1559 16.2112 1.68004 -34.9784 0.0 0.0 -0.0 0.0 -0.0 -20.6398 9.01868 8.37429 -17.8747 -0.314881 -2.71386 40.1561 -11.1782 4.90002 0.573325 -0.0 -0.0 0.0 0.0 0.0 
3095.31114978 661.481 -1663.59667265 1.05694397399 70.0648012138 -8.60937098787 -1.31736 0.852969 5.64481 -1.29978 0.492642 5.68746 -1.23543 -0.837577 5.64711 -1.27989 0.0632809 5.70833 -9.41889 -0.560843 -6.27161 -9.30769 3.25003 -6.28209 -0.0 0.0 -0.0 -3.26984 21.0277 -2.26801 -10.5454 -24.3781 65.4768 0.431691 -12.0709 0.0456428 -77.2062 -7.46646 5.30863 5.00736 4.70828 37.7683 -0.0 0.0 -0.0 12.841 26.4773 -25.2535 22.8231 6.28206 -64.0075 2.75368 53.7455 -1.39557 69.4232 2.68073 7.90492 -2.15639 -1.01873 14.0761 0.0 0.0 0.0 26.0371 10.7943 4.8532 -7.35812 0.232284 1.10459 -11.1559 16.2112 1.68004 -34.9784 0.0 0.0 -0.0 0.0 -0.0 -20.6398 9.01868 8.37429 -17.8747 -0.314881 -2.71386 40.1561 -11.1782 4.90002 0.573325 -0.0 -0.0 0.0 0.0 0.0 
3023.19511491 661.268 -1661.22566665 0.714338152399 72.5344555251 -8.173385142 -0.76042 0.516514 4.52755 -0.749049 0.227672 4.55118 -0.723129 -0.792045 4.48764 -0.751214 -0.0741336 4.55625 -6.55787 -0.511348 -0.408265 -6.55745 -0.650027 -0.509866 -0.0 0.0 -0.0 -1.84753 19.5143 -0.46023 -6.18973 -26.8209 65.7402 0.52424 -14.5579 0.0669615 -83.8641 -8.30965 5.21107 4.72068 7.58106 36.4283 -0.0 0.0 -0.0 12.809 26.8147 -25.1389 12.8737 6.14344 -60.8658 1.99653 44.6787 -0.820506 70.6141 2.80434 7.99478 -2.77048 -6.99487 15.3064 0.0 0.0 0.0 21.2719 10.9077 7.9143 -6.4138 0.210442 0.961321 -1.15855 7.18894 0.170042 -36.0881 0.0 0.0 -0.0 0.0 -0.0 -17.914 8.27948 10.4902 -27.7082 -0.125003 -4.20905 36.274 -16.6343 4.60777 12.2995 -0.0 -0.0 0.0 0.0 0.0 
3003.21008674 664.476 -1655.8212912 -0.261198610427 73.795283815 -7.20824959934 -0.552476 0.227572 4.02456 -0.543468 -0.0287706 4.03087 -0.540324 -0.913843 3.92619 -0.561718 -0.282833 4.02106 -7.91324 -1.06857 -0.916133 -7.91128 -1.34411 -1.13932 -0.0 0.0 -0.0 -1.27187 18.8082 0.289536 -4.39048 -28.035 66.7437 0.601886 -16.6024 0.0878194 -85.137 -8.46905 5.18119 4.63699 8.34748 36.0046 -0.0 0.0 -0.0 11.6104 26.5506 -22.4313 9.50792 7.89482 -61.4788 1.74532 40.8425 -0.649859 69.6916 2.70843 7.9254 -2.52552 -9.13023 12.5732 0.0 0.0 0.0 19.5832 11.3171 9.74153 -6.19831 0.205127 0.928679 5.51497 8.51836 -0.795288 -36.1789 0.0 0.0 -0.0 0.0 -0.0 -16.9335 9.2937 10.6059 -28.9171 -0.0840168 -4.39006 35.2063 -19.4158 4.55008 14.5481 -0.0 -0.0 0.0 0.0 0.0 
3003.22478043 664.476 -1655.6329974 -0.262176117666 73.8573561231 -7.20723180992 -0.552476 0.227572 4.02456 -0.543468 -0.0287706 4.03087 -0.540324 -0.913843 3.92619 -0.561718 -0.282833 4.02106 -7.91324 -1.06857 -0.916133 -7.91128 -1.34411 -1.13932 -0.0 0.0 -0.0 -1.27187 18.8082 0.289536 -4.39048 -28.035 66.7437 0.601886 -16.6024 0.0878194 -85.137 -8.46905 5.18119 4.63699 8.34748 36.0046 -0.0 0.0 -0.0 11.6104 26.5506 -22.4313 9.50792 7.89482 -61.4788 1.74532 40.8425 -0.649859 69.6916 2.70843 7.9254 -2.52552 -9.13023 12.5732 0.0 0.0 0.0 19.5832 11.3171 9.74153 -6.19831 0.205127 0.928679 5.51497 8.51836 -0.795288 -36.1789 0.0 0.0 -0.0 0.0 -0.0 -16.9335 9.2937 10.6059 -28.9171 -0.0840168 -4.39006 35.2063 -19.4158 4.55008 14.5481 -0.0 -0.0 0.0 0.0 0.0 
3003.21882126 664.476 -1655.70904518 -0.261780397346 73.8322858345 -7.207643799 -0.552476 0.227572 4.02456 -0.543468 -0.0287706 4.03087 -0.540324 -0.913843 3.92619 -0.561718 -0.282833 4.02106 -7.91324 -1.06857 -0.916133 -7.91128 -1.34411 -1.13932 -0.0 0.0 -0.0 -1.27187 18.8082 0.289536 -4.39048 -28.035 66.7437 0.601886 -16.6024 0.0878194 -85.137 -8.46905 5.18119 4.63699 8.34748 36.0046 -0.0 0.0 -0.0 11.6104 26.5506 -22.4313 9.50792 7.89482 -61.4788 1.74532 40.8425 -0.649859 69.6916 2.70843 7.9254 -2.52552 -9.13023 12.5732 0.0 0.0 0.0 19.5832 11.3171 9.74153 -6.19831 0.205127 0.928679 5.51497 8.51836 -0.795288 -36.1789 0.0 0.0 -0.0 0.0 -0.0 -16.9335 9.2937 10.6059 -28.9171 -0.0840168 -4.39006 35.2063 -19.4158 4.55008 14.5481 -0.0 -0.0 0.0 0.0 0.0 
2980.01470078 672.626 -1650.45890323 -1.58686858268 76.6645630625 -5.67282793661 -0.380048 0.2478 3.60636 -0.372814 0.017968 3.61481 -0.367744 -0.765832 3.53291 -0.385103 -0.198645 3.6094 -7.30719 -0.451037 0.339094 -7.30681 -1.08238 0.244796 -0.0 0.0 -0.0 -0.334825 17.7372 1.56528 -1.90681 -28.7996 66.9621 0.657143 -18.0317 0.104269 -85.3304 -8.4932 5.17634 4.44677 9.59148 34.8767 -0.0 0.0 -0.0 11.0697 24.2565 -21.4503 4.38703 7.12738 -60.9571 1.52999 37.1564 -0.514276 69.8587 2.72571 7.93808 -2.45766 -11.5394 10.9023 0.0 0.0 0.0 18.2217 11.5679 10.9876 -6.3182 0.208099 0.946839 10.2426 8.43451 -1.45474 -35.2775 0.0 0.0 -0.0 0.0 -0.0 -14.8415 10.3333 9.84532 -30.3104 -0.0320534 -4.59756 36.7476 -20.5501 4.72884 16.2874 -0.0 -0.0 0.0 0.0 0.0 
2980.10843843 672.626 -1649.50275545 -1.62006137954 76.9425997804 -5.63873494996 -0.380048 0.2478 3.60636 -0.372814 0.017968 3.61481 -0.367744 -0.765832 3.53291 -0.385103 -0.198645 3.6094 -7.30719 -0.451037 0.339094 -7.30681 -1.08238 0.244796 -0.0 0.0 -0.0 -0.334825 17.7372 1.56528 -1.90681 -28.7996 66.9621 0.657143 -18.0317 0.104269 -85.3304 -8.4932 5.17634 4.44677 9.59148 34.8767 -0.0 0.0 -0.0 11.0697 24.2565 -21.4503 4.38703 7.12738 -60.9571 1.52999 37.1564 -0.514276 69.8587 2.72571 7.93808 -2.45766 -11.5394 10.9023 0.0 0.0 0.0 18.2217 11.5679 10.9876 -6.3182 0.208099 0.946839 10.2426 8.43451 -1.45474 -35.2775 0.0 0.0 -0.0 0.0 -0.0 -14.8415 10.3333 9.84532 -30.3104 -0.0320534 -4.59756 36.7476 -20.5501 4.72884 16.2874 -0.0 -0.0 0.0 0.0 0.0 
2980.42969669 672.626 -1646.53146817 -1.73308564535 77.8074810318 -5.52291353331 -0.380048 0.2478 3.60636 -0.372814 0.017968 3.61481 -0.367744 -0.765832 3.53291 -0.385103 -0.198645 3.6094 -7.30719 -0.451037 0.339094 -7.30681 -1.08238 0.244796 -0.0 0.0 -0.0 -0.334825 17.7372 1.56528 -1.90681 -28.7996 66.9621 0.657143 -18.0317 0.104269 -85.3304 -8.4932 5.17634 4.44677 9.59148 34.8767 -0.0 0.0 -0.0 11.0697 24.2565 -21.4503 4.38703 7.12738 -60.9571 1.52999 37.1564 -0.514276 69.8587 2.72571 7.93808 -2.45766 -11.5394 10.9023 0.0 0.0 0.0 18.2217 11.5679 10.9876 -6.3182 0.208099 0.946839 10.2426 8.43451 -1.45474 -35.2775 0.0 0.0 -0.0 0.0 -0.0 -14.8415 10.3333 9.84532 -30.3104 -0.0320534 -4.59756 36.7476 -20.5501 4.72884 16.2874 -0.0 -0.0 0.0 0.0 0.0 
2963.5874176 673.46 -1638.146983 -4.37705032546 79.2477841763 -2.07355972428 -0.288746 0.21491 3.18577 -0.2831 0.0118608 3.19298 -0.279501 -0.675388 3.12083 -0.293049 -0.174298 3.18825 -8.27777 -0.602684 0.871146 -8.27573 -1.73857 0.727716 -0.0 0.0 -0.0 0.232535 17.1871 2.37387 -0.168748 -29.2999 66.8091 0.740003 -20.1317 0.131362 -85.1758 -8.4739 5.18023 4.26394 11.1678 33.9216 -0.0 0.0 -0.0 10.0884 22.1337 -19.4331 0.275174 7.65651 -61.7818 1.51012 36.7966 -0.502327 69.7414 2.71358 7.92919 -1.86789 -13.2074 6.30789 0.0 0.0 0.0 17.3161 12.8486 10.8407 -6.7131 0.217621 1.00669 14.662 10.826 -2.05158 -34.7148 0.0 0.0 -0.0 0.0 -0.0 -13.1165 10.7343 8.99929 -31.7008 0.0248288 -4.80335 38.202 -21.4372 4.89261 17.9296 -0.0 -0.0 0.0 0.0 0.0 
